<?xml version="1.0" encoding="UTF-8"?>
<svg viewBox="0 0 40 40" version="1.1" xmlns="http://www.w3.org/2000/svg" xmlns:xlink="http://www.w3.org/1999/xlink">
    <g stroke="none" stroke-width="1" fill="none" fill-rule="evenodd">
        <g>
            <circle id="Oval" fill="#A4A6A9" cx="20" cy="20" r="20"></circle>
            <path d="M35.7425545,7.66279851 C38.4096166,11.0612753 40,15.3449107 40,20 C40,27.7581146 35.5826871,34.4845104 29.1259857,37.8012631 L17.1700198,24.9804393 Z" id="Combined-Shape" fill="#58595A"></path>
            <circle id="Oval" fill="#58595A" cx="20.5263158" cy="20.5263158" r="13.1578947"></circle>
            <circle id="Oval" fill="#3D3E40" cx="20" cy="20" r="6.31578947"></circle>
            <circle id="Oval" fill="#FFFFFF" cx="20.5263158" cy="3.68421053" r="1.57894737"></circle>
            <circle id="Oval-Copy" fill="#FFFFFF" cx="20.5263158" cy="36.3157895" r="1.57894737"></circle>
            <circle id="Oval-Copy" fill="#FFFFFF" transform="translate(8.027696, 30.487587) rotate(50.000000) translate(-8.027696, -30.487587) " cx="8.02769593" cy="30.4875873" r="1.57894737"></circle>
            <circle id="Oval-Copy" fill="#FFFFFF" transform="translate(4.210526, 20.000000) rotate(90.000000) translate(-4.210526, -20.000000) " cx="4.21052632" cy="20" r="1.57894737"></circle>
            <circle id="Oval" fill="#FFFFFF" transform="translate(8.027696, 9.512413) rotate(-50.000000) translate(-8.027696, -9.512413) " cx="8.02769593" cy="9.51241268" r="1.57894737"></circle>
            <circle id="Oval-Copy" fill="#FFFFFF" transform="translate(33.024936, 30.487587) rotate(-50.000000) translate(-33.024936, -30.487587) " cx="33.0249357" cy="30.4875873" r="1.57894737"></circle>
            <rect id="Rectangle" fill="#B2B2B2" x="18.9473684" y="18.9473684" width="20" height="3.15789474" rx="1.5"></rect>
        </g>
    </g>
</svg>
