<?xml version="1.0" encoding="UTF-8"?>
<svg viewBox="0 0 24 24" version="1.1" xmlns="http://www.w3.org/2000/svg" xmlns:xlink="http://www.w3.org/1999/xlink">
    <g stroke="none" stroke-width="1" fill="none" fill-rule="evenodd" stroke-linecap="round" stroke-linejoin="round">
        <g transform="translate(0.495216, 0.500000)" stroke="#339BB2">
            <path d="M5.50478418,5.99999813 C2.66257788,5.99767347 0.286729595,8.16128395 0.0238566968,10.9913087 C-0.239016201,13.8213334 1.69768018,16.3855238 4.49168932,16.9067292 C7.28569845,17.4279346 10.0166358,15.7344629 10.7917842,12.9999981 L12.0047842,12.9999981 L13.0047842,13.9999981 L14.0047842,12.9999981 L15.0047842,12.9999981 L16.0047842,13.9999981 L17.0047842,12.9999981 L18.5047842,12.9999981 L20.0047842,11.4999981 L18.5047842,9.99999813 L10.7917842,9.99999813 C10.1213667,7.63498643 7.96298366,6.00201266 5.50478418,5.99999813 Z" id="Path"></path>
            <circle id="Oval" cx="3.50478418" cy="11.502" r="1.5"></circle>
            <path d="M10.0047842,19.022 L10.0047842,22 C10.0047842,22.5522847 10.4524994,23 11.0047842,23 L22.0047842,23 C22.5570689,23 23.0047842,22.5522847 23.0047842,22 L23.0047842,1 C23.0047842,0.44771525 22.5570689,0 22.0047842,0 L11.0047842,0 C10.4524994,0 10.0047842,0.44771525 10.0047842,1 L10.0047842,5" id="Path"></path>
        </g>
    </g>
</svg>
